<svg width="130" height="17" viewBox="0 0 130 17" fill="none" xmlns="http://www.w3.org/2000/svg">
<path d="M9 0.5L11.0206 6.71885H17.5595L12.2694 10.5623L14.2901 16.7812L9 12.9377L3.70993 16.7812L5.73056 10.5623L0.440492 6.71885H6.97937L9 0.5Z" fill="#FBBF24"/>
<path d="M37 0.5L39.0206 6.71885H45.5595L40.2694 10.5623L42.2901 16.7812L37 12.9377L31.7099 16.7812L33.7306 10.5623L28.4405 6.71885H34.9794L37 0.5Z" fill="#FBBF24"/>
<path d="M65 0.5L67.0206 6.71885H73.5595L68.2694 10.5623L70.2901 16.7812L65 12.9377L59.7099 16.7812L61.7306 10.5623L56.4405 6.71885H62.9794L65 0.5Z" fill="#FBBF24"/>
<path d="M93 0.5L95.0206 6.71885H101.56L96.2694 10.5623L98.2901 16.7812L93 12.9377L87.7099 16.7812L89.7306 10.5623L84.4405 6.71885H90.9794L93 0.5Z" fill="#FBBF24"/>
<path d="M121 0.5L123.021 6.71885H129.56L124.269 10.5623L126.29 16.7812L121 12.9377L115.71 16.7812L117.731 10.5623L112.44 6.71885H118.979L121 0.5Z" fill="#FBBF24"/>
</svg>
